<mxfile host="app.diagrams.net" modified="2023-09-20T00:22:52.952Z" agent="Mozilla/5.0 (Windows NT 10.0; Win64; x64) AppleWebKit/537.36 (KHTML, like Gecko) Chrome/116.0.0.0 Safari/537.36" version="21.7.5" etag="aXxryFOkhGl75wkfdJ5o" type="google">
  <diagram name="PÃ¡gina-1" id="5Tw_NGI7q6H_C3-bgL9J">
    <mxGraphModel>
      <root>
        <mxCell id="0" />
        <mxCell id="1" parent="0" />
      </root>
    </mxGraphModel>
  </diagram>
</mxfile>
